<svg xmlns="http://www.w3.org/2000/svg" viewBox="-0.31 -0.31 200.62 200.61"><metadata xmlns:fl="https://football-logos.cc/italy/ac-leon">dl1_b98040bafa69324e5c2da95d91911d9deac29b37963e0618dc06f1eedf90ba0e</metadata><!-- Source: https://football-logos.cc --><defs data-source="https://football-logos.cc"><clipPath id="a"><path fill="none" d="M-.002 0h200v200h-200z" data-name="Rettangolo 1"></path></clipPath></defs><g data-name="Raggruppa 91" data-source="https://football-logos.cc"><g clip-path="url(#a)" data-name="Raggruppa 1" transform="translate(.002)"><path fill="#c5c5c6" d="M199.825 100.129A99.53 99.53 0 1 1 100.294.6a99.53 99.53 0 0 1 99.531 99.529" data-name="Tracciato 1"></path><path fill="#1a1a18" d="m83.491 90.699-11.72-6.766v2.476a9.4 9.4 0 0 0 4.7 8.137l5.369 3.1a4.7 4.7 0 0 1 2.267 3.218l1.915 10.389a.474.474 0 0 0 .547.376.47.47 0 0 0 .384-.5l-1.126-16.681a4.7 4.7 0 0 0-2.339-3.751" data-name="Tracciato 2"></path><path fill="#1a1a18" d="m114.168 94.45-1.125 16.681a.469.469 0 0 0 .928.119l1.917-10.389a4.7 4.7 0 0 1 2.271-3.216l5.369-3.1a9.4 9.4 0 0 0 4.7-8.137v-2.476l-11.717 6.766a4.7 4.7 0 0 0-2.34 3.751" data-name="Tracciato 3"></path><path fill="#1a1a18" d="m103.376 125.534 8.98-4.275.057-.836a.94.94 0 0 0-.876-1 .8.8 0 0 0-.184 0q-5.653.752-11.354.978-5.695-.227-11.354-.978a.94.94 0 0 0-1.055.81 1 1 0 0 0 0 .187l.053.836 8.983 4.275a4.7 4.7 0 0 1 2.537 3.1l.839 5.844.839-5.844a4.7 4.7 0 0 1 2.539-3.1" data-name="Tracciato 4"></path><path fill="#1a1a18" d="m122.799 138.283 3.993 6.825q.959-1.068 1.907-2.148l-4.317-6.5c-.521.612-1.052 1.216-1.583 1.821" data-name="Tracciato 5"></path><path fill="#1a1a18" d="M121.925 139.296a4.7 4.7 0 0 1-1.55 1.145l3.756 7.59q1.022-1.097 2.03-2.2l-3.918-6.895q-.16.181-.318.363" data-name="Tracciato 6"></path><path fill="#1a1a18" d="m124.925 135.823 4.387 6.428q.911-1.051 1.8-2.112l-4.7-6.1c-.5.6-1 1.189-1.5 1.782" data-name="Tracciato 7"></path><path fill="#1a1a18" d="m121.925 117.56 20.107 16.682q1.454-.7 2.881-1.447l-21.22-15.64q-.882.21-1.768.4" data-name="Tracciato 8"></path><path fill="#1a1a18" d="m128.082 130.187 6.549 7.194q1.382-.515 2.747-1.074l-9.242-9.051a9.4 9.4 0 0 1-.054 2.931" data-name="Tracciato 9"></path><path fill="#1a1a18" d="M120.344 117.899a.473.473 0 0 0-.366.541v.017a.47.47 0 0 0 .282.339c.056.022.109.049.163.071a25.5 25.5 0 0 1 3.2 1.6q.227.133.446.279a9.37 9.37 0 0 1 3.794 5.219l10.424 9.957q1.419-.6 2.818-1.248l-19.929-16.954q-.416.09-.832.178" data-name="Tracciato 10"></path><path fill="#1a1a18" d="m127.548 63.643 11.093-14.373q-1.38-.976-2.792-1.909l-11.089 16.2a9.4 9.4 0 0 1 2.788.072" data-name="Tracciato 11"></path><path fill="#1a1a18" d="m117.017 140.656 4.257 10.371q1.1-1.126 2.175-2.272l-3.853-8.037a4.7 4.7 0 0 1-2.579-.062" data-name="Tracciato 12"></path><path fill="#1a1a18" d="M113.925 147.776q-.588.589-1.181 1.172l2.138 8.37q1.283-1.212 2.547-2.445l-2.635-8.3a4.6 4.6 0 0 1-.868 1.206" data-name="Tracciato 13"></path><path fill="#1a1a18" d="m108.637 72.019 9.974-31.315q-1.715.04-3.424.144l-8.246 32.149Z" data-name="Tracciato 14"></path><path fill="#1a1a18" d="m118.911 66.086 12.322-21.623q-1.452-.866-2.93-1.692l-12.44 25.075Z" data-name="Tracciato 15"></path><path fill="#1a1a18" d="m140.024 107.676 20.949 4.33q.4-1.615.753-3.239l-21.12-3.116q-.278 1.016-.582 2.026" data-name="Tracciato 16"></path><path fill="#1a1a18" d="m140.809 104.906 21.128 2.849q.338-1.642.627-3.3l-21.241-1.629a85 85 0 0 1-.514 2.077" data-name="Tracciato 17"></path><path fill="#1a1a18" d="m138.891 110.319 20.945 5.88q.467-1.592.88-3.2l-20.924-4.6a9.3 9.3 0 0 1-.9 1.914" data-name="Tracciato 18"></path><path fill="#1a1a18" d="m142.096 99.165 20.089-.114q-.68-1.624-1.4-3.228l-18.307 1.155q-.174 1.097-.383 2.186" data-name="Tracciato 19"></path><path fill="#1a1a18" d="M100 75.55q.291-.001.579-.02l.961-32.846q-.77.161-1.54.337-.735-.167-1.469-.322l.925 32.833q.27.017.543.018" data-name="Tracciato 20"></path><path fill="#1a1a18" d="m124.49 116.964 21.354 15.335q1.489-.8 2.944-1.662l-22.331-14.173c-.653.171-1.311.335-1.967.5" data-name="Tracciato 21"></path><path fill="#1a1a18" d="m130.439 115.359 23.228 12.182q1.535-1.044 3.028-2.156l-23.791-10.788q-1.229.392-2.465.762" data-name="Tracciato 22"></path><path fill="#1a1a18" d="m127.314 116.242 22.418 13.834q1.514-.919 2.995-1.9l-23.218-12.548q-1.095.317-2.195.615" data-name="Tracciato 23"></path><path fill="#1a1a18" d="m133.917 114.268 23.157 10.157q.591-1.552 1.135-3.122l-22-8.177a9.4 9.4 0 0 1-2.29 1.143" data-name="Tracciato 24"></path><path fill="#1a1a18" d="m136.906 112.598 21.633 7.739q.528-1.573 1.006-3.158l-21.1-6.206a9.4 9.4 0 0 1-1.54 1.626" data-name="Tracciato 25"></path><path fill="#1a1a18" d="M121.315 64.698a9.3 9.3 0 0 1 2.308-.916l.047-.011 11.312-16.98q-1.419-.921-2.859-1.8l-11.932 20.353Z" data-name="Tracciato 26"></path><path fill="#1a1a18" d="m104.127 74.592 5.668-33.261q-1.6.19-3.2.435l-3.731 33.33a9 9 0 0 0 1.259-.5" data-name="Tracciato 27"></path><path fill="#1a1a18" d="m106.232 73.408 7.9-32.489q-1.656.119-3.309.3l-6.056 33.037Z" data-name="Tracciato 28"></path><path fill="#1a1a18" d="m102.291 75.264 3.311-33.338q-1.55.255-3.09.563l-1.375 32.99a10 10 0 0 0 1.154-.215" data-name="Tracciato 29"></path><path fill="#1a1a18" d="m111.443 70.398 11.8-29.693q-1.771-.043-3.545-.022l-10.263 30.875Z" data-name="Tracciato 30"></path><path fill="#1a1a18" d="m114.795 68.463 12.593-26.2c-.948-.517-1.9-1.025-2.861-1.515h-.172l-12 29.13Z" data-name="Tracciato 31"></path><path fill="#1a1a18" d="m162.613 100.081-20.663-.139a77 77 0 0 1-.452 2.128l21.24 1.366c.12-.74.238-1.48.344-2.223-.153-.379-.316-.754-.47-1.132" data-name="Tracciato 32"></path><path fill="#1a1a18" d="m126.898 133.367 4.8 6.075c.4-.477.8-.952 1.193-1.433l.839-.3-5.86-6.6a9.3 9.3 0 0 1-.973 2.255" data-name="Tracciato 33"></path><path fill="#1a1a18" d="m105.896 151.617.829 7.487q1.6-.1 3.186-.233l-1.259-7.444q-1.376.113-2.756.19" data-name="Tracciato 34"></path><path fill="#1a1a18" d="m133.179 66.945 11.884-11.609c-.206-.57-.408-1.142-.625-1.71-.456-.366-.921-.723-1.384-1.082L131.422 65.29a9.4 9.4 0 0 1 1.757 1.655" data-name="Tracciato 35"></path><path fill="#1a1a18" d="m102.244 151.77.305 7.509q1.588-.041 3.179-.122l-.736-7.488q-1.374.068-2.749.1" data-name="Tracciato 36"></path><path fill="#1a1a18" d="m140.578 87.515 13.937-4.084c-.5-.887-1.018-1.768-1.538-2.646l-13.559 4.834q.589.944 1.159 1.9" data-name="Tracciato 37"></path><path fill="#1a1a18" d="m136.298 76.41 12.683-8.027a123 123 0 0 0-.811-3.2l-12.358 8.853q.256 1.185.486 2.375" data-name="Tracciato 38"></path><path fill="#1a1a18" d="m137.57 82.406 13.063-5.906q-.256-1.52-.551-3.031l-13.1 6.855a9.4 9.4 0 0 0 .585 2.081" data-name="Tracciato 39"></path><path fill="#1a1a18" d="m136.85 79.52 13.037-7.027q-.32-1.559-.677-3.109l-12.755 7.856q.211 1.138.395 2.283" data-name="Tracciato 40"></path><path fill="#1a1a18" d="m135.626 73.175 12.256-9.011q-.459-1.66-.969-3.3l-11.873 9.83q.307 1.24.586 2.485" data-name="Tracciato 41"></path><path fill="#1a1a18" d="m134.788 69.829 11.8-10.021q-.546-1.716-1.141-3.416L133.679 67.61a9.4 9.4 0 0 1 1.107 2.219" data-name="Tracciato 42"></path><path fill="#1a1a18" d="M142.754 95.16c-.047.341-.1.681-.149 1.023l17.745-1.344q-.7-1.535-1.438-3.053l-16.079 2.15a9 9 0 0 1-.079 1.225" data-name="Tracciato 43"></path><path fill="#1a1a18" d="m142.799 93.14 15.643-2.29q-.719-1.456-1.471-2.9l-14.611 3a9.5 9.5 0 0 1 .438 2.185" data-name="Tracciato 44"></path><path fill="#1a1a18" d="M138.368 83.946c.215.332.421.67.631 1l13.487-5q-.773-1.28-1.575-2.545l-13.024 5.7a9 9 0 0 0 .481.841" data-name="Tracciato 45"></path><path fill="#1a1a18" d="M141.565 89.167a9 9 0 0 1 .514 1.041l14.421-3.153q-.736-1.388-1.5-2.763l-14 3.915c.191.321.387.637.573.96" data-name="Tracciato 46"></path><path fill="#1a1a18" d="m130.718 64.826 11.508-12.93q-1.353-1.032-2.731-2.022l-11.062 13.971a9.4 9.4 0 0 1 2.287.98" data-name="Tracciato 47"></path><path fill="#1a1a18" d="m97.17 75.11-3.69-33.331q-1.6-.246-3.2-.437l5.634 33.272a10 10 0 0 0 1.256.5" data-name="Tracciato 48"></path><path fill="#1a1a18" d="m73.544 133.997-4.7 6.091q.893 1.065 1.8 2.113l4.395-6.423c-.5-.592-1-1.183-1.495-1.782" data-name="Tracciato 49"></path><path fill="#1a1a18" d="m71.874 127.181-9.321 9.1q1.368.559 2.751 1.076l6.6-7.234a9.4 9.4 0 0 1-.03-2.947" data-name="Tracciato 50"></path><path fill="#1a1a18" d="m60.185 108.354-20.924 4.574q.415 1.6.878 3.2l20.937-5.854a9.3 9.3 0 0 1-.891-1.918" data-name="Tracciato 51"></path><path fill="#1a1a18" d="m75.574 136.418-4.323 6.491q.944 1.082 1.9 2.148l4-6.821c-.528-.6-1.058-1.208-1.58-1.818" data-name="Tracciato 52"></path><path fill="#1a1a18" d="M76.373 120.471a26 26 0 0 1 3.1-1.561l.266-.114a.48.48 0 0 0 .29-.414.5.5 0 0 0-.034-.2.47.47 0 0 0-.339-.285q-.44-.091-.879-.189l-19.95 16.935q1.4.649 2.818 1.252l10.518-10.024a9.36 9.36 0 0 1 4.21-5.4" data-name="Tracciato 53"></path><path fill="#1a1a18" d="m63.742 113.093-21.978 8.143q.544 1.567 1.134 3.116l23.117-10.108a9.4 9.4 0 0 1-2.273-1.151" data-name="Tracciato 54"></path><path fill="#1a1a18" d="m61.52 110.93-21.089 6.178q.478 1.584 1 3.152l21.613-7.7a9.4 9.4 0 0 1-1.527-1.629" data-name="Tracciato 55"></path><path fill="#1a1a18" d="m80.346 140.705-3.847 8q1.077 1.144 2.172 2.27l4.239-10.292a4.7 4.7 0 0 1-2.564.02" data-name="Tracciato 56"></path><path fill="#1a1a18" d="M76.254 117.145 55.02 132.761q1.426.752 2.88 1.449l20.129-16.661q-.886-.194-1.771-.4" data-name="Tracciato 57"></path><path fill="#1a1a18" d="m73.489 116.454-22.345 14.144q1.453.859 2.942 1.664l21.37-15.312q-.983-.24-1.967-.5" data-name="Tracciato 58"></path><path fill="#1a1a18" d="m70.431 115.612-23.223 12.52q1.476.98 2.988 1.9l22.432-13.806q-1.1-.3-2.2-.614" data-name="Tracciato 59"></path><path fill="#1a1a18" d="M78.076 139.29c-.12-.134-.237-.273-.356-.408l-3.926 6.888c.67.74 1.349 1.472 2.027 2.2l3.751-7.561a4.7 4.7 0 0 1-1.5-1.12" data-name="Tracciato 60"></path><path fill="#1a1a18" d="M86.071 147.777a4.6 4.6 0 0 1-.905-1.285l-2.654 8.327q1.262 1.232 2.546 2.444l2.144-8.364c-.376-.372-.756-.744-1.131-1.121" data-name="Tracciato 61"></path><path fill="#1a1a18" d="M90.327 151.348a1.87 1.87 0 0 1-1.132-.511q-.631-.6-1.254-1.215l-2.05 8.425c.161.148.317.3.476.45q1.319.15 2.644.277l1.359-7.423h-.043" data-name="Tracciato 62"></path><path fill="#1a1a18" d="m72.11 131.05-5.905 6.634q.45.165.9.325c.38.464.768.923 1.152 1.384l4.811-6.076a9.4 9.4 0 0 1-.96-2.266" data-name="Tracciato 63"></path><path fill="#1a1a18" d="M99.999 151.807c-.468 0-.937-.014-1.4-.023l-.219 7.519q.811.016 1.624.019.777 0 1.552-.017l-.212-7.519c-.445.008-.893.02-1.34.022" data-name="Tracciato 64"></path><path fill="#1a1a18" d="m98.901 75.482-1.34-32.978q-1.537-.309-3.087-.564l3.274 33.332a9 9 0 0 0 1.153.21" data-name="Tracciato 65"></path><path fill="#1a1a18" d="m93.109 73.026-8.214-32.173q-1.712-.106-3.425-.149l9.95 31.346Z" data-name="Tracciato 66"></path><path fill="#1a1a18" d="m95.275 74.277-6.019-33.054q-1.65-.18-3.31-.3l7.872 32.512Z" data-name="Tracciato 67"></path><path fill="#1a1a18" d="M94.2 159.153q1.588.083 3.179.125l.312-7.508c-.916-.023-1.832-.06-2.749-.1Z" data-name="Tracciato 68"></path><path fill="#1a1a18" d="M90.011 158.865q1.592.139 3.191.234l.837-7.485q-1.381-.079-2.759-.191Z" data-name="Tracciato 69"></path><path fill="#1a1a18" d="M110.802 150.837a1.87 1.87 0 0 1-1.131.511l-.107.008 1.353 7.425c.9-.086 1.809-.179 2.712-.284.14-.13.278-.263.418-.391l-2.04-8.432q-.599.584-1.205 1.164" data-name="Tracciato 70"></path><path fill="#1a1a18" d="m75.314 63.579-11.1-16.257q-1.411.932-2.794 1.908l11.1 14.4a9.4 9.4 0 0 1 2.8-.055" data-name="Tracciato 71"></path><path fill="#1a1a18" d="m78.682 64.697 1.216.7-11.957-20.448q-1.442.877-2.862 1.8l11.325 17.04a9.4 9.4 0 0 1 2.278.91" data-name="Tracciato 72"></path><path fill="#1a1a18" d="M65.895 68.303c.143-.255.3-.5.459-.736L54.576 56.319q-.6 1.7-1.143 3.416l11.8 10.042a9.4 9.4 0 0 1 .66-1.474" data-name="Tracciato 73"></path><path fill="#1a1a18" d="M84.214 67.891 71.768 42.733q-1.478.822-2.933 1.689l12.34 21.716Z" data-name="Tracciato 74"></path><path fill="#1a1a18" d="m71.631 63.829-11.064-14q-1.382.992-2.734 2.019l11.5 12.948a9.4 9.4 0 0 1 2.3-.967" data-name="Tracciato 75"></path><path fill="#1a1a18" d="m68.625 65.252-11.62-12.759c-.483.377-.97.749-1.448 1.133q-.302.812-.593 1.626l11.9 11.645a9.3 9.3 0 0 1 1.765-1.646" data-name="Tracciato 76"></path><path fill="#1a1a18" d="m59.374 105.597-21.121 3.09q.349 1.628.749 3.242l20.954-4.306q-.305-1.012-.582-2.027" data-name="Tracciato 77"></path><path fill="#1a1a18" d="m90.616 71.589-10.232-30.9q-1.772-.025-3.547.018l11.776 29.728Z" data-name="Tracciato 78"></path><path fill="#1a1a18" d="m67.022 114.572-23.756 10.741.024.063q1.464 1.091 2.971 2.117l23.231-12.153q-1.24-.37-2.47-.767" data-name="Tracciato 79"></path><path fill="#1a1a18" d="M87.708 69.909 75.733 40.737l-.259.007q-1.407.719-2.793 1.476l12.6 26.286Z" data-name="Tracciato 80"></path><path fill="#1a1a18" d="M64.974 70.628 53.105 60.78q-.508 1.646-.97 3.3l12.245 9.027q.281-1.244.591-2.485" data-name="Tracciato 81"></path><path fill="#1a1a18" d="m58.037 99.888-20.621.116c-.166.4-.34.8-.5 1.209.1.718.215 1.432.332 2.146l21.241-1.34q-.24-1.062-.451-2.13" data-name="Tracciato 82"></path><path fill="#1a1a18" d="m57.655 90.903-14.6-3.016q-.752 1.439-1.47 2.894l15.613 2.3a9.4 9.4 0 0 1 .453-2.179" data-name="Tracciato 83"></path><path fill="#1a1a18" d="M58.433 89.167c.2-.339.4-.672.6-1.008l-14-3.93q-.769 1.372-1.505 2.76l14.409 3.167a9 9 0 0 1 .491-.988" data-name="Tracciato 84"></path><path fill="#1a1a18" d="M57.248 95.159a10 10 0 0 1-.078-1.284l-16.045-2.163q-.738 1.519-1.44 3.057l17.706 1.357c-.049-.321-.1-.644-.143-.967" data-name="Tracciato 85"></path><path fill="#1a1a18" d="m64.2 73.973-12.349-8.867q-.43 1.6-.817 3.2l12.679 8.043q.229-1.19.487-2.378" data-name="Tracciato 86"></path><path fill="#1a1a18" d="m57.51 96.92-18.263-1.173q-.72 1.605-1.4 3.228l20.047.136a78 78 0 0 1-.381-2.19" data-name="Tracciato 87"></path><path fill="#1a1a18" d="m58.664 102.78-21.245 1.608q.285 1.65.625 3.289l21.132-2.824q-.27-1.033-.512-2.073" data-name="Tracciato 88"></path><path fill="#1a1a18" d="m63.557 77.18-12.75-7.868q-.36 1.551-.678 3.113l13.03 7.041q.186-1.145.4-2.286" data-name="Tracciato 89"></path><path fill="#1a1a18" d="m60.611 85.57-13.555-4.846q-.782 1.312-1.536 2.638l13.929 4.1q.571-.951 1.159-1.891" data-name="Tracciato 90"></path><path fill="#1a1a18" d="M63.02 80.295v-.025l-13.09-6.868q-.3 1.509-.554 3.025l13.074 5.929a9.4 9.4 0 0 0 .57-2.06" data-name="Tracciato 91"></path><path fill="#1a1a18" d="M61.632 83.949a10 10 0 0 0 .506-.891l-13.011-5.709q-.8 1.263-1.574 2.542L61.032 84.9c.2-.317.395-.639.6-.954" data-name="Tracciato 92"></path><path fill="#1a1a18" d="m114.584 139.782-11.09-4.034-.07-.026-1.213-.441-.751-.273-.6-.218-.864-.314-1.44.523-.172.062-1.573.574-.419.151-.612.222-.479.175-2.025.737-.283.1-1.444.524-6.255 2.276-1.378.5-4.524 11.385q1.162 1.185 2.341 2.35l3-9.025a5 5 0 0 1-.041-.58v-1.6a1.875 1.875 0 0 1 1.238-1.759l.131-.048.948-.344 2.252-.821.458-.166.693-.252 2.289-.833.807-.294 2.1-.764.761-.278 1.953-.71.724-.263.951-.347.906.329.434.158.874.318 1.365.5.76.278 2.1.762.812.3 2.284.832.87.317 2.526.918.945.344.195.072a1.87 1.87 0 0 1 1.237 1.763v1.6a5 5 0 0 1-.06.711l2.963 8.949q1.181-1.168 2.344-2.353l-4.541-11.464Z" data-name="Tracciato 93"></path><path fill="#1a1a18" d="m57.227 33.585-.8-17.511 14 10.685-2.782 1.439-2.536-1.92-6.744 3.488.141 3.16Zm1.079-5.016 5.855-3.028-6.224-4.74Z" data-name="Tracciato 94"></path><path fill="#1a1a18" d="M83.016 19.88c-.072.432-.916 3.731-5.247 5.042-4.642 1.4-8.42-1.315-9.749-5.709-1.324-4.372.306-8.751 4.949-10.156a7.18 7.18 0 0 1 7.189 1.3l-.3 1.113c-6.5-4.283-10.633 1.218-8.926 6.86 1.715 5.663 8.265 7.931 11.287.79Z" data-name="Tracciato 95"></path><path fill="#1a1a18" d="m105.074 20.038.013 1.305-10.442.1-.134-13.7a1.98 1.98 0 0 0-1.454-1.878.08.08 0 0 0-.066-.021l-.437-.1v-.2l4.545-.044.144 14.617Z" data-name="Tracciato 96"></path><path fill="#1a1a18" d="m117.982 22.127-.166 1.075-10.125-1.561 2.088-13.544a1.98 1.98 0 0 0-1.108-2.085.08.08 0 0 0-.062-.031l-.435-.178.03-.194 12.041 1.857-.166 1.075-7.332-1.13-.9 5.8 6.084.938-.2 1.29-6.084-.938-1 6.492Z" data-name="Tracciato 97"></path><path fill="#1a1a18" d="M135.836 20.736c-1.89 5.446-5.965 6.7-9.972 5.314s-6.429-4.9-4.538-10.348c1.824-5.262 5.956-6.684 9.964-5.293s6.387 5.025 4.547 10.328M133 19.753c1.676-4.83.586-7.4-2.066-8.317-2.632-.912-5.083.448-6.751 5.257-1.725 4.975-.6 7.437 2.03 8.35 2.653.921 5.061-.316 6.787-5.29" data-name="Tracciato 98"></path><path fill="#1a1a18" d="m153.473 21.667-8.023 13.755-3.829-14.549-5.36 9.189-1.127-.657 6.127-10.5a4.3 4.3 0 0 0 .858-2.723 2.4 2.4 0 0 0-.262-.758 4 4 0 0 0-.4-.562l.088-.151a4.62 4.62 0 0 1 2.11 2.769l3.344 12.7 5.351-9.17Z" data-name="Tracciato 99"></path><path fill="#1a1a18" d="M99.962 176.025a76.026 76.026 0 0 1-1.811-152.028 79 79 0 0 1 1.882-.023 76.026 76.026 0 0 1 1.813 152.023c-.626.014-1.258.023-1.884.023m.071-149.416c-.6 0-1.213.008-1.817.022a73.475 73.475 0 0 0-71.587 75.152c.961 39.483 33.857 71.605 73.333 71.605.605 0 1.216-.006 1.82-.022a73.475 73.475 0 0 0 71.584-75.151c-.96-39.485-33.857-71.607-73.333-71.607" data-name="Tracciato 100"></path><path fill="#1a1a18" d="M99.986 200.303A100.3 100.3 0 0 1 28.668 29.478 99.65 99.65 0 0 1 99.426-.307h.584a100.305 100.305 0 0 1 71.319 170.826 99.65 99.65 0 0 1-70.759 29.784zm.024-197.975h-.569a97.67 97.67 0 0 0 .545 195.338h.57a97.67 97.67 0 0 0-.546-195.338" data-name="Tracciato 101"></path><path fill="#1a1a18" d="M19.153 136.783a1.4 1.4 0 0 1-1.283-.834 89.48 89.48 0 0 1 14.477-94.95 1.401 1.401 0 0 1 2.113 1.841 86.68 86.68 0 0 0-14.028 91.976 1.4 1.4 0 0 1-1.279 1.967" data-name="Tracciato 102"></path><path fill="#1a1a18" d="M180.935 136.782a1.4 1.4 0 0 1-1.282-1.965 86.91 86.91 0 0 0-13.379-91.067 1.401 1.401 0 0 1 2.137-1.813 89.71 89.71 0 0 1 13.8 94 1.4 1.4 0 0 1-1.283.838" data-name="Tracciato 103"></path><path fill="#e57004" d="M99.997 42.048a95.6 95.6 0 0 1 23.27-2.282l-4.04-7.669a72.34 72.34 0 0 0-38.458 0l-4.038 7.669a95.6 95.6 0 0 1 23.267 2.282" data-name="Tracciato 104"></path><path fill="#e57004" d="M99.997 161.206a125 125 0 0 1-14.25-.894l-8.78 6.408a72 72 0 0 0 46.064 0l-8.779-6.409a125 125 0 0 1-14.253.894" data-name="Tracciato 105"></path><path fill="#e57004" d="m145.619 53.24 8.632 1.428a70.5 70.5 0 0 0-33.137-22.015l3.775 7.166a117.7 117.7 0 0 1 20.73 13.421" data-name="Tracciato 106"></path><path fill="#e57004" d="M152.092 77.108a148.4 148.4 0 0 1 11.88 23.021l6.561-5.7a70.5 70.5 0 0 0-14.938-38.107l-9.4-1.557a123 123 0 0 1 5.9 22.345" data-name="Tracciato 107"></path><path fill="#e57004" d="M133.728 139.682a206 206 0 0 1-18.427 19.652l9.336 6.817a70.5 70.5 0 0 0 34.9-28l-2.879-10.516a90.2 90.2 0 0 1-22.93 12.047" data-name="Tracciato 108"></path><path fill="#e57004" d="m170.651 96.191-6.12 5.32a110 110 0 0 1-6.656 25.227l2.683 9.784a70.5 70.5 0 0 0 10.093-40.331" data-name="Tracciato 109"></path><path fill="#e57004" d="m75.11 39.819 3.776-7.166a70.5 70.5 0 0 0-33.138 22.016l8.629-1.428A117.7 117.7 0 0 1 75.109 39.82" data-name="Tracciato 110"></path><path fill="#e57004" d="M47.904 77.108a123.3 123.3 0 0 1 5.9-22.345l-9.405 1.557A70.53 70.53 0 0 0 29.46 94.427l6.562 5.7a148.4 148.4 0 0 1 11.879-23.021" data-name="Tracciato 111"></path><path fill="#e57004" d="M66.268 139.682a90.2 90.2 0 0 1-22.932-12.047l-2.882 10.516a70.5 70.5 0 0 0 34.9 28l9.337-6.817a206 206 0 0 1-18.429-19.652" data-name="Tracciato 112"></path><path fill="#e57004" d="m35.469 101.511-6.123-5.32a70.5 70.5 0 0 0 10.093 40.332l2.685-9.785a109.8 109.8 0 0 1-6.656-25.227" data-name="Tracciato 113"></path><path fill="#1a1a18" d="m38.631 152.155-11.2 8.169-1.451-1.988 9.054-6.607-12.482 2.384 5.806-10.705-8.656 6.318-.67-.918 11.2-8.169 1.4 1.912-5.25 9.666 10.807-2.05Z" data-name="Tracciato 114"></path><path fill="#1a1a18" d="M44.07 166.936c-3.463 3.629-7.141 3.154-9.812.606s-3.32-6.2.142-9.831c3.345-3.507 7.129-3.141 9.8-.593s3.242 6.284-.129 9.817m-1.89-1.8c3.071-3.22 3.134-5.645 1.367-7.331-1.753-1.671-4.185-1.481-7.244 1.725-3.161 3.314-3.161 5.671-1.406 7.344s4.122 1.577 7.283-1.738" data-name="Tracciato 115"></path><path fill="#1a1a18" d="m59.194 168.977-7.782 11.47-2.463-12.862-5.2 7.662-.939-.637 5.943-8.758a3.75 3.75 0 0 0 .905-2.313 2 2 0 0 0-.183-.674 3.4 3.4 0 0 0-.316-.511l.085-.127a4.03 4.03 0 0 1 1.67 2.529l2.149 11.229 5.19-7.645Z" data-name="Tracciato 116"></path><path fill="#1a1a18" d="m58.246 182.706 7.353 3.4-.478 1.03-10.754-4.978 13.229-7.894-6.27-2.9.477-1.03 9.672 4.477Z" data-name="Tracciato 117"></path><path fill="#1a1a18" d="m68.926 188.593 9.761-11.726 2.727 15.085-2.634-.708-.5-2.723-6.382-1.717-1.764 2.115Zm3.638-2.59 5.541 1.491-1.217-6.7Z" data-name="Tracciato 118"></path><path fill="#1a1a18" d="m99.052 192.746-.061.945-8.9-.568.759-11.9a1.73 1.73 0 0 0-1.123-1.722.07.07 0 0 0-.055-.023l-.39-.12.01-.169 10.58.674-.061.945-6.442-.41-.325 5.1 5.346.34-.072 1.134-5.346-.342-.365 5.707Z" data-name="Tracciato 119"></path><path fill="#1a1a18" d="M117.794 188.416c.1.769-.016 3.631-4.858 4.271l-5.217.69-1.562-11.824a1.73 1.73 0 0 0-1.438-1.49l-.057.007-.408-.06-.02-.15 6.886-.91c4.216-.615 5.1 2.341 5.181 2.943a3.22 3.22 0 0 1-1.944 3.484 3.455 3.455 0 0 1 3.437 3.04m-8.644-2.982 3.286-.434c.281-.037 1.711-.34 1.434-2.443-.367-2.776-2.6-2.481-2.6-2.481l-2.778.367Zm5.892 3.25a2.82 2.82 0 0 0-1.045-1.98 2.56 2.56 0 0 0-1.918-.511l-2.777.368.71 5.367 2.776-.367a2.574 2.574 0 0 0 2.255-2.876" data-name="Tracciato 120"></path><path fill="#1a1a18" d="m132.929 187.852-2.682.807-5.969-4.588-1.014.305 1.761 5.855-2.356.709-3.438-11.42a1.73 1.73 0 0 0-1.654-1.221.06.06 0 0 0-.059 0l-.409.024-.049-.162 3.915-1.18c2.139-.644 6.168-1.836 7.283 1.861a3.36 3.36 0 0 1-1.583 4.134 7.7 7.7 0 0 1-1.676.8l2.253-.263Zm-7.322-5.54.032-.031c.463-.5.709-1.319.284-2.735a2.68 2.68 0 0 0-3.384-2.044l-1.228.388 1.671 5.548 1.234-.372a3.06 3.06 0 0 0 1.392-.755" data-name="Tracciato 121"></path><path fill="#1a1a18" d="m139.206 185.085-2.085.9-4.746-10.94a1.73 1.73 0 0 0-1.784-1.022.07.07 0 0 0-.06.005l-.4.071-.068-.156 3.63-1.573Z" data-name="Tracciato 122"></path><path fill="#1a1a18" d="m142.108 183.933-1.463-15.187 12.634 8.68-2.356 1.373-2.288-1.56-5.711 3.325.26 2.742Zm.72-4.407 4.957-2.886-5.617-3.851Z" data-name="Tracciato 123"></path><path fill="#1a1a18" d="m155.793 157.682 8.785 10.718-13.028-1.291 5.869 7.159-.877.72-6.71-8.185a3.75 3.75 0 0 0-1.962-1.527 2 2 0 0 0-.7-.014 3.3 3.3 0 0 0-.58.157l-.1-.118a4.02 4.02 0 0 1 2.9-.882l11.376 1.128-5.856-7.145Z" data-name="Tracciato 124"></path><path fill="#1a1a18" d="m168.689 162.505 5.364-6.071.849.751-7.841 8.881-3.783-14.931-4.575 5.177-.85-.751 7.055-7.987Z" data-name="Tracciato 125"></path><path fill="#1a1a18" d="m177.385 153.965-8.439-12.709 15.231 1.709-1.432 2.318-2.753-.3-3.469 5.621 1.519 2.294Zm-1.441-4.226 3.015-4.881-6.766-.752Z" data-name="Tracciato 126"></path></g></g><!-- source: https://football-logos.cc --></svg>